<?xml version="1.0" encoding="utf-8"?>
<!-- Generator: Adobe Illustrator 17.1.0, SVG Export Plug-In . SVG Version: 6.00 Build 0)  -->
<!DOCTYPE svg PUBLIC "-//W3C//DTD SVG 1.1//EN" "http://www.w3.org/Graphics/SVG/1.1/DTD/svg11.dtd">
<svg version="1.1" id="Layer_1" xmlns="http://www.w3.org/2000/svg" xmlns:xlink="http://www.w3.org/1999/xlink" x="0px" y="0px"
	 viewBox="0 0 95.3 26.6" enable-background="new 0 0 95.3 26.6" xml:space="preserve">
<path d="M8.2,21H0V0h8.2c6.6,0,11.2,4.5,11.2,10.4v0.1C19.3,16.4,14.8,21,8.2,21z M14.5,10.5c0-3.7-2.5-6.3-6.3-6.3H4.6v12.7h3.6
	C12,16.8,14.5,14.3,14.5,10.5L14.5,10.5z"/>
<path d="M31.7,9.4c-3,0-4.9,1.8-4.9,5.7V21h-4.6V4.9h4.6v3.2c0.9-2.2,2.4-3.7,5.1-3.5v4.8H31.7z"/>
<path d="M38.8,4.7v16.1h-4.6V4.7H38.8z"/>
<path d="M50.7,21.3c-2.4,0-3.9-1.1-5-2.4v7.7h-4.6V4.9h4.6v2.3c1.1-1.5,2.6-2.6,5-2.6c3.8,0,7.3,2.9,7.3,8.3V13
	C58,18.4,54.5,21.3,50.7,21.3z M53.4,12.9c0-2.7-1.8-4.4-3.9-4.4s-3.9,1.8-3.9,4.4V13c0,2.7,1.8,4.4,3.9,4.4S53.4,15.7,53.4,12.9
	L53.4,12.9z"/>
<path d="M65.5,21.3c-2.3,0-4.8-0.8-6.9-2.4l2-3c1.7,1.3,3.6,1.9,5.1,1.9c1.3,0,1.9-0.5,1.9-1.2v-0.1c0-1-1.6-1.3-3.3-1.9
	C62,14,59.4,13,59.4,9.8V9.8c0-3.3,2.6-5.1,5.9-5.1c2,0,4.3,0.7,6,1.9l-1.7,3.1c-1.6-0.9-3.2-1.5-4.3-1.5c-1.1,0-1.7,0.5-1.7,1.1
	v0.1c0,0.9,1.5,1.3,3.3,1.9c2.2,0.8,4.9,1.8,4.9,4.8v0.1C71.7,19.7,69,21.3,65.5,21.3z"/>
<path d="M79.6,21.3c-2.8,0-4.7-1.1-4.7-4.8V8.8H73V4.9h1.9V0.8h4.6v4.1h3.8v3.9h-3.8v6.9c0,1,0.5,1.6,1.5,1.6c0.8,0,1.6-0.2,2.2-0.6
	v3.7C82.2,20.9,81.1,21.3,79.6,21.3z"/>
<path d="M95,9.4c-3,0-4.9,1.8-4.9,5.7V21h-4.6V4.9h4.6v3.2c0.9-2.2,2.4-3.7,5.1-3.5v4.8H95z"/>
<rect x="34.2" y="22.7" width="4.6" height="3.9"/>
</svg>
